<svg width="30" height="30" viewBox="0 0 30 30" fill="none" xmlns="http://www.w3.org/2000/svg">
<path d="M5.3125 0H24.6875C27.625 0 30 2.4359 30 5.44872V24.5513C30 27.5641 27.625 30 24.6875 30H5.3125C2.375 30 0 27.5641 0 24.5513V5.44872C0 2.4359 2.375 0 5.3125 0Z" fill="#001E36"/>
<path d="M6.75 21.336V8.58601C6.75 8.49927 6.7875 8.44971 6.875 8.44971C7.0875 8.44971 7.2875 8.44971 7.575 8.43732C7.875 8.42493 8.1875 8.42493 8.525 8.41254C8.8625 8.40015 9.225 8.40015 9.6125 8.38776C10 8.37537 10.375 8.37537 10.75 8.37537C11.775 8.37537 12.625 8.49927 13.325 8.75948C13.95 8.97012 14.525 9.31705 15 9.77551C15.4 10.172 15.7125 10.6552 15.9125 11.188C16.1 11.7084 16.2 12.2412 16.2 12.7988C16.2 13.8644 15.95 14.7441 15.45 15.438C14.95 16.1319 14.25 16.6523 13.4375 16.9497C12.5875 17.2594 11.65 17.371 10.625 17.371C10.325 17.371 10.125 17.371 10 17.3586C9.875 17.3462 9.7 17.3462 9.4625 17.3462V21.3236C9.475 21.4103 9.4125 21.4846 9.325 21.497H6.9C6.8 21.497 6.75 21.4475 6.75 21.336ZM9.475 10.8411V15.0043C9.65 15.0167 9.8125 15.0291 9.9625 15.0291H10.625C11.1125 15.0291 11.6 14.9548 12.0625 14.8061C12.4625 14.6946 12.8125 14.4592 13.0875 14.1494C13.35 13.8396 13.475 13.4183 13.475 12.8732C13.4875 12.4891 13.3875 12.1049 13.1875 11.7704C12.975 11.4482 12.675 11.2004 12.3125 11.0641C11.85 10.8783 11.35 10.8039 10.8375 10.8163C10.5125 10.8163 10.225 10.8163 9.9875 10.8287C9.7375 10.8163 9.5625 10.8287 9.475 10.8411ZM24 14.2485C23.625 14.0503 23.225 13.914 22.8 13.8272C22.3375 13.7281 21.875 13.6662 21.4 13.6662C21.15 13.6538 20.8875 13.6909 20.65 13.7529C20.4875 13.7901 20.35 13.8768 20.2625 14.0007C20.2 14.0998 20.1625 14.2237 20.1625 14.3353C20.1625 14.4468 20.2125 14.5583 20.2875 14.6574C20.4 14.7937 20.55 14.9052 20.7125 14.992C21 15.1406 21.3 15.2769 21.6 15.4008C22.275 15.6239 22.925 15.9336 23.525 16.3054C23.9375 16.5656 24.275 16.9125 24.5125 17.3338C24.7125 17.7303 24.8125 18.164 24.8 18.61C24.8125 19.1924 24.6375 19.7747 24.3125 20.258C23.9625 20.7536 23.475 21.1377 22.9125 21.3607C22.3 21.6209 21.55 21.7572 20.65 21.7572C20.075 21.7572 19.5125 21.7077 18.95 21.5962C18.5125 21.5218 18.075 21.3855 17.675 21.1997C17.5875 21.1501 17.525 21.0634 17.5375 20.9642V18.8083C17.5375 18.7711 17.55 18.7215 17.5875 18.6968C17.625 18.672 17.6625 18.6844 17.7 18.7091C18.1875 18.9941 18.7 19.1924 19.25 19.3163C19.725 19.4402 20.225 19.5021 20.725 19.5021C21.2 19.5021 21.5375 19.4402 21.7625 19.3287C21.9625 19.2419 22.1 19.0313 22.1 18.8083C22.1 18.6348 22 18.4737 21.8 18.3126C21.6 18.1516 21.1875 17.9657 20.575 17.7303C19.9375 17.5073 19.35 17.2099 18.8 16.8382C18.4125 16.5656 18.0875 16.2062 17.85 15.785C17.65 15.3885 17.55 14.9548 17.5625 14.5211C17.5625 13.9883 17.7125 13.4803 17.9875 13.0218C18.3 12.5262 18.7625 12.1297 19.3 11.8819C19.8875 11.5845 20.625 11.4482 21.5125 11.4482C22.025 11.4482 22.55 11.4854 23.0625 11.5598C23.4375 11.6093 23.8 11.7084 24.1375 11.8447C24.1875 11.8571 24.2375 11.9067 24.2625 11.9563C24.275 12.0058 24.2875 12.0554 24.2875 12.1049V14.1246C24.2875 14.1742 24.2625 14.2237 24.225 14.2485C24.1125 14.2733 24.05 14.2733 24 14.2485Z" fill="#31A8FF"/>
</svg>
