<svg width="30" height="30" viewBox="0 0 30 30" fill="none" xmlns="http://www.w3.org/2000/svg">
<mask id="mask0_0_2787" style="mask-type:alpha" maskUnits="userSpaceOnUse" x="0" y="0" width="30" height="30">
<rect width="30" height="30" fill="#D9D9D9"/>
</mask>
<g mask="url(#mask0_0_2787)">
<path d="M0.285426 10.4614C0.285426 10.4614 -0.445264 9.92899 0.431564 9.21809L2.47445 7.37162C2.47445 7.37162 3.059 6.74997 3.67704 7.29161L22.5288 21.7187V28.6368C22.5288 28.6368 22.5197 29.7232 21.1405 29.6032L0.285426 10.4614Z" fill="#2489CA"/>
<path d="M5.14448 14.9207L0.28539 19.3861C0.28539 19.3861 -0.213915 19.7616 0.28539 20.4324L2.54139 22.5066C2.54139 22.5066 3.07723 23.0883 3.86881 22.4266L9.02018 18.4783L5.14448 14.9207Z" fill="#1070B3"/>
<path d="M13.6756 14.9576L22.587 8.07946L22.5291 1.19827C22.5291 1.19827 22.1486 -0.303527 20.879 0.478147L9.02051 11.3877L13.6756 14.9576Z" fill="#0877B9"/>
<path d="M21.1407 29.6125C21.6583 30.1479 22.2855 29.9725 22.2855 29.9725L29.2301 26.5135C30.1191 25.901 29.9943 25.1409 29.9943 25.1409V4.48503C29.9943 3.57718 29.0748 3.26328 29.0748 3.26328L23.0558 0.33047C21.7405 -0.491211 20.8789 0.478188 20.8789 0.478188C20.8789 0.478188 21.9871 -0.328105 22.529 1.19831V28.5107C22.529 28.6984 22.4895 28.8831 22.4103 29.0493C22.252 29.3724 21.908 29.674 21.0829 29.5478L21.1407 29.6125Z" fill="#3C99D4"/>
</g>
</svg>
