<svg width="30" height="30" viewBox="0 0 30 30" fill="none" xmlns="http://www.w3.org/2000/svg">
<mask id="mask0_0_2741" style="mask-type:alpha" maskUnits="userSpaceOnUse" x="0" y="0" width="30" height="30">
<rect width="30" height="30" fill="#D9D9D9"/>
</mask>
<g mask="url(#mask0_0_2741)">
<path d="M15 30C23.2843 30 30 23.2843 30 15C30 6.71573 23.2843 0 15 0C6.71573 0 0 6.71573 0 15C0 23.2843 6.71573 30 15 30Z" fill="#1976D2"/>
<path d="M19.5752 13.0725C19.5752 13.0725 18.2777 17.1375 18.1802 17.4825C18.1427 17.1375 17.1977 9.83252 17.1977 9.83252C14.9852 9.83252 13.8077 11.4 13.1852 13.0725C13.1852 13.0725 11.6102 17.1525 11.4827 17.4975C11.4752 17.175 11.2427 13.1175 11.2427 13.1175C11.1077 11.0775 9.24773 9.84002 7.74023 9.84002L9.55523 20.91C11.8727 20.9025 13.1177 19.335 13.7702 17.67C13.7702 17.67 15.1577 14.07 15.2177 13.905C15.2327 14.0625 16.2152 20.91 16.2152 20.91C18.5327 20.91 19.7852 19.44 20.4602 17.835L23.7002 9.83252C21.4052 9.83252 20.1977 11.4 19.5752 13.0725Z" fill="white"/>
</g>
</svg>
