<svg width="30" height="30" viewBox="0 0 30 30" fill="none" xmlns="http://www.w3.org/2000/svg">
<mask id="mask0_0_2815" style="mask-type:alpha" maskUnits="userSpaceOnUse" x="0" y="0" width="30" height="30">
<rect width="30" height="30" fill="#D9D9D9"/>
</mask>
<g mask="url(#mask0_0_2815)">
<g clip-path="url(#clip0_0_2815)">
<path d="M2.12371 15C2.12371 20.0936 5.07187 24.4954 9.34717 26.5814L3.23337 9.76306C2.50047 11.4108 2.12234 13.1954 2.12371 15ZM23.5929 14.3506C23.5929 12.7604 23.0239 11.6589 22.536 10.8018C21.8862 9.74177 21.2773 8.84412 21.2773 7.78412C21.2773 6.60118 22.1708 5.5 23.4296 5.5C23.4864 5.5 23.5402 5.50706 23.5956 5.51035C21.3153 3.41282 18.2773 2.13224 14.9406 2.13224C10.4629 2.13224 6.52357 4.43882 4.23183 7.93247C4.5325 7.94153 4.81584 7.94776 5.05663 7.94776C6.39713 7.94776 8.47233 7.78459 8.47233 7.78459C9.16332 7.74365 9.24475 8.76247 8.55459 8.84459C8.55459 8.84459 7.8602 8.92659 7.08754 8.96718L11.7551 22.9059L14.56 14.46L12.5631 8.96682C11.8729 8.92624 11.2191 8.84424 11.2191 8.84424C10.5284 8.80353 10.6094 7.74329 11.3 7.78424C11.3 7.78424 13.4167 7.94753 14.676 7.94753C16.0165 7.94753 18.0918 7.78424 18.0918 7.78424C18.7832 7.74329 18.8645 8.76212 18.1741 8.84424C18.1741 8.84424 17.4783 8.92624 16.707 8.96682L21.3389 22.7999L22.6173 18.5107C23.1713 16.7308 23.593 15.4525 23.593 14.3507L23.5929 14.3506ZM15.1654 16.1256L11.32 27.3448C12.4957 27.6925 13.7149 27.869 14.9406 27.8691C16.4331 27.8691 17.8644 27.61 19.1968 27.1396C19.1612 27.0834 19.1307 27.024 19.1055 26.9624L15.1654 16.1256ZM26.1868 8.82624C26.2419 9.23612 26.2732 9.67612 26.2732 10.1494C26.2732 11.4553 26.0303 12.9232 25.2986 14.7586L21.3837 26.1233C25.194 23.8924 27.7569 19.7476 27.7569 15.0004C27.7571 12.7631 27.188 10.6592 26.1868 8.82624ZM14.9406 0C6.70249 0 0 6.72894 0 15C0 23.2721 6.70249 30.0008 14.9406 30.0008C23.1783 30.0008 29.8818 23.2721 29.8818 15C29.8816 6.72894 23.1783 0 14.9406 0ZM14.9406 29.3133C7.08039 29.3133 0.685014 22.8924 0.685014 15C0.685014 7.10823 7.08004 0.687765 14.9406 0.687765C22.8006 0.687765 29.1953 7.10823 29.1953 15C29.1953 22.8924 22.8006 29.3133 14.9406 29.3133Z" fill="#464342"/>
</g>
</g>
<defs>
<clipPath id="clip0_0_2815">
<rect width="30" height="30" fill="white"/>
</clipPath>
</defs>
</svg>
