<svg width="30" height="30" viewBox="0 0 30 30" fill="none" xmlns="http://www.w3.org/2000/svg">
<mask id="mask0_0_2691" style="mask-type:alpha" maskUnits="userSpaceOnUse" x="0" y="0" width="30" height="30">
<rect width="30" height="30" fill="#D9D9D9"/>
</mask>
<g mask="url(#mask0_0_2691)">
<path d="M14.9941 15.0056C14.9941 12.2495 17.2289 10.0037 19.9969 10.0037C22.7535 10.0037 24.9997 12.2381 24.9997 15.0056C24.9997 17.7618 22.7649 20.0075 19.9969 20.0075C17.2403 20.0075 14.9941 17.7618 14.9941 15.0056Z" fill="#1ABCFE"/>
<path d="M5 24.9982C5 22.242 7.2348 19.9963 10.0028 19.9963H15.0056V24.9982C15.0056 27.7543 12.7708 30.0001 10.0028 30.0001C7.2348 30.0001 5 27.7657 5 24.9982Z" fill="#0ACF83"/>
<path d="M14.9941 0.0113422V10.0038H19.9969C22.7535 10.0038 24.9997 7.76937 24.9997 5.00189C24.9997 2.24575 22.7649 0 19.9969 0H14.9941V0.0113422Z" fill="#FF7262"/>
<path d="M5 5.01324C5 7.76938 7.2348 10.0151 10.0028 10.0151H15.0056V0.0113525H10.0028C7.2348 0.0113525 5 2.24576 5 5.01324Z" fill="#F24E1E"/>
<path d="M5 15.0056C5 17.7618 7.2348 20.0075 10.0028 20.0075H15.0056V10.0037H10.0028C7.2348 10.0037 5 12.2495 5 15.0056Z" fill="#A259FF"/>
</g>
</svg>
