<svg width="30" height="30" viewBox="0 0 30 30" fill="none" xmlns="http://www.w3.org/2000/svg">
<mask id="mask0_0_2760" style="mask-type:alpha" maskUnits="userSpaceOnUse" x="0" y="0" width="30" height="30">
<rect width="30" height="30" fill="#D9D9D9"/>
</mask>
<g mask="url(#mask0_0_2760)">
<path d="M5.3125 0H24.6875C27.625 0 30 2.4359 30 5.44872V24.5513C30 27.5641 27.625 30 24.6875 30H5.3125C2.375 30 0 27.5641 0 24.5513V5.44872C0 2.4359 2.375 0 5.3125 0Z" fill="#470137"/>
<path d="M15.775 8.62479L12.025 14.7594L16.025 21.2658C16.05 21.3154 16.0625 21.365 16.05 21.4145C16.0375 21.4641 15.9875 21.4269 15.9125 21.4393H13.05C12.85 21.4393 12.7125 21.4269 12.625 21.303C12.3625 20.7825 12.0875 20.2744 11.825 19.7539C11.5625 19.2457 11.275 18.7252 10.975 18.1923C10.675 17.6594 10.375 17.1265 10.075 16.5812H10.05C9.78752 17.1141 9.50002 17.647 9.21252 18.1799C8.92502 18.7128 8.63752 19.2457 8.36252 19.7662C8.07502 20.2868 7.78752 20.8197 7.50002 21.3278C7.45002 21.4517 7.35002 21.4641 7.21252 21.4641H4.46252C4.41252 21.4641 4.37502 21.4889 4.37502 21.4269C4.36252 21.3774 4.37502 21.3278 4.40002 21.2906L8.28752 14.9701L4.50002 8.6124C4.46252 8.56283 4.45002 8.51326 4.47502 8.48847C4.50002 8.45129 4.55002 8.4389 4.60002 8.4389H7.43752C7.50002 8.4389 7.56252 8.45129 7.61252 8.46368C7.66252 8.48847 7.70002 8.52565 7.73752 8.57522C7.97502 9.10813 8.25002 9.64103 8.53752 10.1739C8.83752 10.7068 9.12502 11.2274 9.43752 11.7479C9.73752 12.2684 10.0125 12.7889 10.275 13.3218H10.3C10.5625 12.7765 10.8375 12.2436 11.1125 11.7231C11.3875 11.2026 11.675 10.6821 11.9625 10.1615C12.25 9.64103 12.525 9.10813 12.8 8.60001C12.8125 8.55043 12.8375 8.50086 12.875 8.47608C12.925 8.45129 12.975 8.4389 13.0375 8.45129H15.675C15.7375 8.4389 15.8 8.47608 15.8125 8.53804C15.825 8.55043 15.8 8.60001 15.775 8.62479ZM21.55 21.6996C20.625 21.712 19.7 21.5261 18.8625 21.1419C18.075 20.7825 17.425 20.1876 16.975 19.4564C16.5125 18.7004 16.2875 17.7586 16.2875 16.6308C16.275 15.7137 16.5125 14.809 16.975 14.0158C17.45 13.2103 18.1375 12.541 18.9625 12.0949C19.8375 11.6115 20.8875 11.3761 22.125 11.3761C22.1875 11.3761 22.275 11.3761 22.3875 11.3885C22.5 11.4009 22.625 11.4009 22.775 11.4133V7.49702C22.775 7.41026 22.8125 7.36069 22.9 7.36069H25.4375C25.5 7.3483 25.55 7.39787 25.5625 7.44744V19.2705C25.5625 19.4936 25.575 19.7415 25.5875 20.0141C25.6125 20.2744 25.625 20.5222 25.6375 20.7329C25.6375 20.8197 25.6 20.894 25.5125 20.9312C24.8625 21.2039 24.175 21.4021 23.475 21.5261C22.8375 21.6376 22.2 21.6996 21.55 21.6996ZM22.775 19.2209V13.768C22.6625 13.7432 22.55 13.7184 22.4375 13.706C22.3 13.6936 22.1625 13.6812 22.025 13.6812C21.5375 13.6812 21.05 13.7803 20.6125 14.0034C20.1875 14.2141 19.825 14.5239 19.55 14.9205C19.275 15.3171 19.1375 15.85 19.1375 16.4945C19.125 16.9282 19.2 17.362 19.35 17.7709C19.475 18.1056 19.6625 18.403 19.9125 18.6509C20.15 18.8739 20.4375 19.0474 20.7625 19.1466C21.1 19.2581 21.45 19.3077 21.8 19.3077C21.9875 19.3077 22.1625 19.2953 22.325 19.2829C22.4875 19.2953 22.625 19.2705 22.775 19.2209Z" fill="#FF61F6"/>
</g>
</svg>
