<svg width="24" height="24" viewBox="0 0 24 24" fill="none" xmlns="http://www.w3.org/2000/svg">
<g clip-path="url(#clip0_0_147)">
<path d="M16.7997 14.2941C17.8939 12.7412 17.9644 10.6235 17.0468 9C16.9762 8.85883 16.7997 8.82353 16.6939 8.89412C16.5527 8.96471 16.5174 9.14118 16.588 9.24706C17.3997 10.6941 17.3291 12.6353 16.3762 13.9765C16.3056 14.0824 16.3056 14.2588 16.4468 14.3294C16.5527 14.4353 16.7291 14.4353 16.7997 14.2941ZM15.5997 15.6353C15.7409 15.6353 15.8821 15.5294 15.8821 15.3529V15.3176C15.8821 15.1765 15.7762 15.0353 15.5997 15.0353C15.4233 15.0353 15.3174 15.1412 15.3174 15.3176V15.3529C15.3527 15.4941 15.4586 15.6353 15.5997 15.6353Z" fill="white"/>
<path d="M12.2472 19.4824C15.8472 19.7647 19.0236 17.1882 19.8707 14.0118C20.4707 11.7176 19.9766 9.24706 18.5648 7.37647C17.2942 5.71765 14.9295 4.51765 12.9883 4.55294C11.6472 4.58823 10.4119 4.87059 9.31775 5.43529C9.38834 5.36471 9.49422 5.29412 9.56481 5.25882C6.95305 6.28235 5.04716 8.92941 4.90599 11.7529C4.69422 15.5294 7.65893 19.4824 12.2472 19.4824ZM12.9883 5.08235C14.753 5.04706 16.9766 6.17647 18.1413 7.69412C19.4825 9.42353 19.9413 11.7529 19.3413 13.8706C18.6707 16.4471 16.3766 18.4941 13.7648 18.9176C10.906 19.3765 7.87069 17.8235 6.56481 15.2118C4.51775 11.1882 6.77658 5.18823 12.9883 5.08235ZM7.80011 5.32941C7.94128 5.25882 7.97658 5.08235 7.87069 4.97647L6.56481 2.85882C6.49422 2.71765 6.31775 2.68235 6.21187 2.78823C6.07069 2.85882 6.0354 3.03529 6.14128 3.14118L7.44717 5.25882C7.51775 5.36471 7.69422 5.4 7.80011 5.32941ZM4.90599 5.78823C4.80011 5.68235 4.62364 5.68235 4.51775 5.78823C4.41187 5.89412 4.41187 6.07059 4.51775 6.17647C5.25893 6.95294 5.25893 7.09412 5.47069 7.09412C5.68246 7.09412 5.82364 6.81176 5.68246 6.63529L4.90599 5.78823ZM0.741282 8.11765C4.41187 9.42353 4.2354 9.35294 4.30599 9.35294C4.58834 9.35294 4.65893 8.92941 4.37658 8.82353L0.882459 7.58823C0.741282 7.55294 0.600106 7.62353 0.529518 7.7647C0.458929 7.90588 0.600106 8.04706 0.741282 8.11765ZM4.02364 11.6118C4.16481 11.6118 4.27069 11.4706 4.27069 11.3294C4.27069 11.1882 4.12952 11.0824 3.98834 11.0824C3.56481 11.0824 3.10599 11.0118 2.71775 10.8706C2.57658 10.8353 2.4354 10.9059 2.36481 11.0118C2.32952 11.1529 2.40011 11.2941 2.50599 11.3647C3.0354 11.5412 3.52952 11.6471 4.02364 11.6118ZM1.09422 14.7529C1.27069 14.7529 2.32952 14.3294 4.27069 14.0824C4.41187 14.0824 4.51775 13.9412 4.51775 13.8C4.51775 13.6588 4.37658 13.5529 4.2354 13.5529C3.14128 13.6588 2.08246 13.9059 1.05893 14.2235C0.705988 14.3294 0.776576 14.7529 1.09422 14.7529ZM3.67069 17.0118C3.77658 17.0118 3.74128 17.0118 5.01187 16.3059C5.15305 16.2353 5.18834 16.0588 5.11775 15.9529C5.04716 15.8471 4.87069 15.7765 4.76481 15.8471L3.52952 16.5176C3.31775 16.6588 3.38834 17.0118 3.67069 17.0118ZM6.10599 17.9294C5.22364 18.7765 4.41187 19.6588 3.67069 20.6118C3.52952 20.7882 3.67069 21.0353 3.88246 21.0353C3.95305 21.0353 4.02364 21 4.09422 20.9294C4.8354 20.0118 5.64716 19.1294 6.49422 18.3176C6.60011 18.2118 6.60011 18.0353 6.49422 17.9294C6.38834 17.8235 6.21187 17.8235 6.10599 17.9294ZM7.69422 19.0941L7.2354 19.8C7.12952 19.9765 7.27069 20.1882 7.44717 20.1882C7.55305 20.1882 7.62364 20.1529 7.65893 20.0471L8.11775 19.3412C8.18834 19.2 8.15305 19.0588 8.04716 18.9882C7.90599 18.9176 7.76481 18.9529 7.69422 19.0941ZM9.6354 19.8706C9.42364 20.6471 9.14128 21.4235 8.75305 22.1647C8.68246 22.3059 8.75305 22.4471 8.85893 22.5176C8.89422 22.5529 8.92952 22.5529 8.96481 22.5529C9.07069 22.5529 9.14128 22.4824 9.21187 22.4118C9.60011 21.6353 9.88246 20.8588 10.1295 20.0118C10.1648 19.8706 10.0942 19.7294 9.95305 19.6941C9.81187 19.6588 9.67069 19.7294 9.6354 19.8706ZM11.6472 20.3294L11.5413 21.2824C11.5413 21.4235 11.6472 21.5647 11.7883 21.5647C11.9295 21.5647 12.0354 21.4588 12.0354 21.3176L12.1413 20.3647C12.1413 20.2235 12.0707 20.0824 11.8942 20.0824C11.7883 20.0824 11.6825 20.1882 11.6472 20.3294ZM14.0825 23.2941L14.0472 20.5059C14.0472 20.3647 13.9413 20.2235 13.7648 20.2588C13.6236 20.2588 13.5178 20.3647 13.5178 20.5412L13.553 23.3294C13.553 23.4706 13.6589 23.5765 13.8354 23.5765C13.9413 23.5412 14.0825 23.4353 14.0825 23.2941ZM9.45893 4.51765C9.60011 4.48235 9.70599 4.34118 9.67069 4.2L9.52952 3.49412C9.49422 3.35294 9.35305 3.24706 9.21187 3.28235C9.07069 3.31765 8.96481 3.45882 9.00011 3.6L9.14128 4.30588C9.17658 4.44706 9.31775 4.55294 9.45893 4.51765ZM11.4707 4.02353C11.6119 4.02353 11.7178 3.88235 11.7178 3.74118C11.6119 2.71765 11.4354 1.65882 11.153 0.670587C11.1178 0.529411 10.9766 0.458823 10.8354 0.494117C10.6942 0.529411 10.6236 0.670587 10.6589 0.811764C10.9413 1.8 11.1178 2.78823 11.1883 3.81176C11.2236 3.91765 11.3295 4.02353 11.4707 4.02353ZM14.0472 2.18823C13.906 2.11765 13.7648 2.22353 13.6942 2.32941C13.553 2.75294 13.5178 3.21176 13.553 3.67059C13.553 3.81176 13.6942 3.91765 13.8001 3.91765C13.9766 3.91765 14.0825 3.77647 14.0472 3.63529C14.0119 3.28235 14.0472 2.89412 14.153 2.54118C14.2589 2.36471 14.1883 2.22353 14.0472 2.18823ZM16.1648 4.02353C16.2707 3.17647 16.4472 2.36471 16.7295 1.55294C16.7648 1.41176 16.6942 1.27059 16.5883 1.2C16.4472 1.16471 16.306 1.23529 16.2354 1.34118C15.9178 2.18823 15.706 3.03529 15.6354 3.91765C15.6354 4.05882 15.7413 4.2 15.8825 4.2C16.0236 4.27059 16.1295 4.16471 16.1648 4.02353ZM17.9295 5.29412C18.2119 5.01176 18.4236 4.65882 18.5295 4.30588C18.5648 4.16471 18.4942 4.02353 18.3883 3.95294C18.2472 3.91765 18.106 3.98823 18.0354 4.09412C17.9295 4.41176 17.753 4.69412 17.5413 4.90588C17.4354 5.01176 17.4354 5.18823 17.5413 5.29412C17.5766 5.32941 17.6472 5.36471 17.7178 5.36471C17.8236 5.36471 17.8942 5.36471 17.9295 5.29412ZM20.5766 3.88235L18.706 6.21176C18.6001 6.31765 18.6354 6.49412 18.7413 6.6C18.8472 6.70588 19.0236 6.67059 19.1295 6.5647L21.0001 4.23529C21.106 4.12941 21.0707 3.95294 20.9648 3.84706C20.8589 3.74118 20.6825 3.77647 20.5766 3.88235ZM21.2119 7.1647C21.106 7.05882 20.9295 7.05882 20.8236 7.12941L20.153 7.69412C19.9766 7.87059 20.0825 8.15294 20.3295 8.15294C20.506 8.15294 20.5413 8.04706 21.1413 7.51765C21.2825 7.44706 21.2825 7.27059 21.2119 7.1647ZM20.7883 10.0941C20.8589 10.0941 20.753 10.1294 23.2589 9.31765C23.4001 9.28235 23.4707 9.14118 23.4354 9C23.4001 8.85882 23.2589 8.78823 23.1178 8.82353L20.753 9.6C20.4354 9.67059 20.506 10.0941 20.7883 10.0941ZM21.0354 12.1412L22.2707 12.1059C22.4119 12.1059 22.5178 11.9647 22.5178 11.8235C22.5178 11.6824 22.3766 11.5765 22.2354 11.5765L21.0354 11.6118C20.8942 11.6118 20.7883 11.7529 20.7883 11.8941C20.7883 12.0353 20.8942 12.1412 21.0354 12.1412ZM23.1883 14.7529C23.2589 14.6118 23.2236 14.4706 23.0825 14.4C22.4119 14.0118 21.6707 13.7294 20.8589 13.5529C20.7178 13.5176 20.5766 13.6235 20.5413 13.7647C20.506 13.9059 20.6119 14.0471 20.753 14.0824C21.4589 14.2235 22.1648 14.5059 22.8001 14.8588C22.9413 14.9294 23.1178 14.8941 23.1883 14.7529ZM19.9413 15.5647C19.8707 15.7059 19.906 15.8471 20.0472 15.9176C20.6472 16.2706 20.6472 16.3059 20.7883 16.3059C20.8942 16.3059 20.9648 16.2706 21.0001 16.1647C21.0707 16.0235 21.0354 15.8824 20.8942 15.8118L20.2942 15.4588C20.1883 15.3882 20.0119 15.4235 19.9413 15.5647ZM21.7766 19.2L19.553 17.3294C19.4472 17.2235 19.2707 17.2588 19.1648 17.3647C19.0589 17.4706 19.0942 17.6471 19.2001 17.7529C21.5295 19.6941 21.4236 19.6941 21.6001 19.6941C21.8472 19.6588 21.953 19.3412 21.7766 19.2ZM18.2472 19.6588C18.353 19.5882 18.3883 19.4118 18.3178 19.3059L17.8589 18.6353C17.7883 18.5294 17.6119 18.4941 17.506 18.5647C17.4001 18.6353 17.3648 18.8118 17.4354 18.9176L17.8942 19.5882C17.9648 19.7294 18.1413 19.7294 18.2472 19.6588ZM17.2942 21.6L16.0236 19.7647C15.953 19.6588 15.7766 19.6235 15.6707 19.6941C15.5648 19.7647 15.5295 19.9412 15.6001 20.0471L16.8707 21.8824C16.906 21.9529 17.0119 21.9882 17.0825 21.9882C17.2589 22.0235 17.4001 21.7765 17.2942 21.6Z" fill="white"/>
</g>
<defs>
<clipPath id="clip0_0_147">
<rect width="24" height="24" fill="white"/>
</clipPath>
</defs>
</svg>
