<svg width="60" height="34" viewBox="0 0 60 34" fill="none" xmlns="http://www.w3.org/2000/svg">
<path d="M16.8178 8.25668V16.5126H8.4089C3.77222 16.5126 0 12.809 0 8.25668C0 3.7036 3.77222 0 8.4089 0C13.0456 0 16.8178 3.7036 16.8178 8.25668Z" fill="white"/>
<path d="M16.8178 17.4881V25.7441C16.8178 30.2964 13.0456 34 8.4089 34C3.77222 34 0 30.2964 0 25.7441C0 21.1917 3.77222 17.4881 8.4089 17.4881H16.8178Z" fill="white"/>
<path d="M51.5678 16.5126H17.9141V8.25668C17.9141 3.7036 21.6863 0 26.323 0H51.5678C46.9311 0 43.1589 3.7036 43.1589 8.25668C43.1589 12.809 46.9311 16.5126 51.5678 16.5126Z" fill="white"/>
<path d="M59.977 8.25668C59.977 12.809 56.2048 16.5126 51.5681 16.5126C46.9314 16.5126 43.1592 12.809 43.1592 8.25668C43.1592 3.7036 46.9314 0 51.5681 0C56.2048 0 59.977 3.7036 59.977 8.25668Z" fill="#ED5221"/>
<path d="M25.1128 24.9117C24.995 24.8455 24.934 24.7753 24.9277 24.703C24.9234 24.6265 24.9718 24.5397 25.0708 24.4447C25.2328 24.2877 25.3591 24.0914 25.4517 23.8558C25.5464 23.6203 25.5948 23.3785 25.5948 23.1306C25.5948 22.6781 25.4369 22.3041 25.1171 22.0086C25.0202 21.9177 24.9066 21.833 24.7782 21.7566C24.2353 21.428 23.4692 21.2627 22.4843 21.2627H18.3406C18.2206 21.2627 18.1175 21.2958 18.0333 21.3619C17.9513 21.426 17.9092 21.5045 17.9092 21.6016C17.9092 21.6966 17.9407 21.7772 18.006 21.8413C18.0754 21.8991 18.1575 21.9508 18.2522 21.99C18.349 22.0293 18.4458 22.0768 18.5405 22.1347C18.6373 22.1905 18.7173 22.2834 18.7825 22.4136C18.8288 22.5025 18.8604 22.6078 18.8751 22.7318C18.8815 22.7855 18.8857 22.8434 18.8857 22.9054V27.2671C18.8857 27.4076 18.8667 27.5316 18.8331 27.6391C18.8183 27.6824 18.8015 27.7238 18.7825 27.761C18.7173 27.8891 18.6373 27.982 18.5405 28.0399C18.4458 28.0957 18.349 28.1432 18.2522 28.1825C18.1575 28.2238 18.0754 28.2755 18.006 28.3374C17.9407 28.3974 17.9092 28.4759 17.9092 28.5709C17.9092 28.668 17.9513 28.7486 18.0333 28.8147C18.1175 28.8788 18.2206 28.9098 18.3406 28.9098H22.9052C23.947 28.9098 24.7446 28.7341 25.2938 28.3829C25.3107 28.3746 25.3275 28.3622 25.3443 28.3519C25.8978 27.98 26.1756 27.4324 26.1756 26.7093C26.1756 25.9158 25.82 25.3166 25.1128 24.9117ZM20.7902 21.8743H22.2739C22.6801 21.8743 23.0084 21.9776 23.2504 22.1822C23.2714 22.1987 23.2904 22.2153 23.3093 22.2339C23.5639 22.4735 23.6902 22.8021 23.6902 23.2194C23.6902 24.0232 23.2188 24.424 22.2739 24.424H20.7902V21.8743ZM22.3749 28.2982H20.7902V25.0377H22.3749C22.9347 25.0377 23.3661 25.1865 23.6755 25.484C23.9869 25.7795 24.1427 26.1948 24.1427 26.7299C24.1427 27.2444 23.9912 27.6349 23.6902 27.8994C23.5492 28.0254 23.3766 28.1226 23.1704 28.1887C22.9452 28.261 22.678 28.2982 22.3749 28.2982Z" fill="#ED5221"/>
<path d="M24.1435 26.7299C24.1435 27.2444 23.9919 27.6349 23.691 27.8994C23.55 28.0255 23.3774 28.1226 23.1712 28.1887C22.946 28.261 22.6787 28.2982 22.3757 28.2982H20.791V25.0377H22.3757C22.9355 25.0377 23.3669 25.1865 23.6763 25.484C23.9877 25.7795 24.1435 26.1948 24.1435 26.7299Z" fill="#121212"/>
<path d="M31.2549 23.6079C31.741 23.6079 32.1577 23.7442 32.5029 24.017C32.848 24.2856 33.0206 24.6121 33.0206 24.9984C33.0206 25.2133 32.9532 25.3951 32.8143 25.5418C32.6817 25.6886 32.5239 25.7795 32.3429 25.8167C32.164 25.8538 31.983 25.8373 31.7978 25.7671C31.6127 25.6947 31.4738 25.5687 31.3812 25.3931C31.3433 25.3208 31.3033 25.2133 31.2633 25.0749C31.2254 24.9365 31.1918 24.8228 31.1602 24.736C31.1328 24.6472 31.0739 24.5666 30.9855 24.4963C30.8992 24.424 30.7856 24.3868 30.6425 24.3868C30.4068 24.3868 30.1963 24.4757 30.0111 24.6513C29.8259 24.8269 29.6913 25.0356 29.605 25.2794C29.5187 25.5212 29.4766 25.765 29.4766 26.0067V27.2713C29.4766 27.4696 29.5082 27.6349 29.5734 27.7651C29.6429 27.8953 29.7249 27.9882 29.8196 28.044C29.9185 28.0998 30.0175 28.1494 30.1122 28.1887C30.209 28.2279 30.2889 28.2796 30.3542 28.3436C30.4236 28.4035 30.4573 28.4821 30.4573 28.5771C30.4573 28.6722 30.4152 28.7548 30.3289 28.8209C30.2468 28.885 30.1458 28.916 30.0259 28.916H27.0291C26.9091 28.916 26.806 28.885 26.7218 28.8209C26.6397 28.7548 26.5977 28.6742 26.5977 28.5771C26.5977 28.48 26.6292 28.4035 26.6945 28.3436C26.7639 28.2796 26.846 28.23 26.9407 28.1887C27.0375 28.1494 27.1322 28.0998 27.229 28.044C27.3258 27.9882 27.4058 27.8953 27.471 27.7651C27.5405 27.6349 27.5741 27.4717 27.5741 27.2713V25.4592C27.5741 25.2732 27.551 25.1183 27.5068 24.9902C27.4647 24.86 27.4121 24.7691 27.3469 24.7154C27.2816 24.6596 27.2122 24.61 27.1364 24.5666C27.0606 24.5232 26.9912 24.4922 26.926 24.4716C26.8607 24.4488 26.806 24.4096 26.7618 24.3579C26.7197 24.3042 26.7008 24.236 26.7008 24.1534C26.7008 24.0562 26.7429 23.9777 26.8249 23.9137C26.9112 23.8476 27.0122 23.8145 27.1322 23.8145H28.9336C29.2956 23.8145 29.4787 23.9984 29.4787 24.3662L29.5608 24.2918C29.6197 24.2381 29.6997 24.1761 29.8028 24.1017C29.908 24.0253 30.028 23.9509 30.1627 23.8786C30.2995 23.8021 30.4657 23.7401 30.6614 23.6885C30.8529 23.6347 31.0529 23.6079 31.2549 23.6079Z" fill="#ED5221"/>
<path d="M39.4547 24.3786C38.8129 23.8641 37.9816 23.6079 36.9588 23.6079C35.936 23.6079 35.1026 23.8641 34.4587 24.3786C33.8189 24.8931 33.499 25.5542 33.499 26.3601C33.499 27.168 33.8189 27.8291 34.4587 28.3436C34.7449 28.573 35.069 28.7507 35.4288 28.8767C35.4309 28.8767 35.4309 28.8767 35.433 28.8767C35.8813 29.0358 36.3906 29.1143 36.9588 29.1143C37.4912 29.1143 37.9711 29.0461 38.3983 28.9056C38.796 28.7796 39.1454 28.5916 39.4547 28.3436C40.0966 27.8291 40.4186 27.168 40.4186 26.3601C40.4186 25.5542 40.0966 24.8931 39.4547 24.3786ZM38.0068 27.9304C37.729 28.3436 37.3797 28.5523 36.9588 28.5523C36.5379 28.5523 36.1886 28.3436 35.9108 27.9304C35.6351 27.5109 35.4962 26.9882 35.4962 26.3601C35.4962 25.734 35.6351 25.2133 35.9108 24.798C36.1886 24.3786 36.5379 24.1699 36.9588 24.1699C37.3797 24.1699 37.729 24.3786 38.0068 24.798C38.2825 25.2133 38.4214 25.734 38.4214 26.3601C38.4214 26.9882 38.2825 27.5109 38.0068 27.9304Z" fill="#ED5221"/>
<path d="M48.8279 28.3375C48.7627 28.2755 48.6827 28.2238 48.588 28.1825C48.4912 28.1432 48.3944 28.0957 48.2955 28.0399C48.1987 27.9821 48.1166 27.8891 48.0493 27.761C47.984 27.6308 47.9504 27.4655 47.9504 27.2672V21.8144C47.9504 21.769 47.9483 21.7277 47.9419 21.6863C47.9041 21.4033 47.7252 21.2628 47.4074 21.2628H45.6102C45.4902 21.2628 45.3871 21.2958 45.3008 21.3619C45.2272 21.4198 45.1872 21.488 45.183 21.5727C45.1788 21.581 45.1788 21.5913 45.1788 21.6016C45.1788 21.6843 45.1998 21.7524 45.2398 21.8062C45.284 21.8578 45.3387 21.8971 45.4039 21.9198C45.4692 21.9405 45.5386 21.9715 45.6144 22.0149C45.6901 22.0582 45.7596 22.1078 45.8248 22.1636C45.8901 22.2173 45.9427 22.3083 45.9848 22.4384C46.029 22.5645 46.0521 22.7194 46.0521 22.9054V24.3538C45.7912 24.1121 45.4818 23.9282 45.1219 23.8021C44.7621 23.672 44.3938 23.6079 44.0171 23.6079C43.1795 23.6079 42.4934 23.8641 41.9589 24.3786C41.4265 24.891 41.1592 25.5501 41.1592 26.3601C41.1592 27.17 41.4265 27.8333 41.9589 28.3478C42.1925 28.5709 42.4555 28.7445 42.7481 28.8705C43.1227 29.0338 43.5457 29.1143 44.0171 29.1143C44.3938 29.1143 44.7621 29.0503 45.1219 28.9201C45.2251 28.8829 45.3261 28.8416 45.4208 28.7961C45.6565 28.6825 45.8669 28.5399 46.0521 28.3684C46.0521 28.5441 46.0963 28.6784 46.1805 28.7693C46.2731 28.8623 46.4099 28.9098 46.5951 28.9098H48.4996C48.6196 28.9098 48.7206 28.8788 48.8027 28.8147C48.8679 28.7652 48.9079 28.7052 48.9226 28.637C48.929 28.6164 48.9311 28.5937 48.9311 28.5709C48.9311 28.4759 48.8974 28.3974 48.8279 28.3375ZM45.6249 27.8788C45.3555 28.2548 44.9894 28.4428 44.5264 28.4428C44.2696 28.4428 44.0423 28.3767 43.8445 28.2424C43.6446 28.106 43.491 27.9325 43.3815 27.7197C43.2742 27.5048 43.1942 27.2816 43.1395 27.0523C43.089 26.8209 43.0637 26.5894 43.0637 26.3601C43.0637 26.1328 43.089 25.9035 43.1395 25.6741C43.1942 25.4406 43.2742 25.2195 43.3815 25.0067C43.491 24.7918 43.6446 24.6162 43.8445 24.484C44.0423 24.3476 44.2696 24.2794 44.5264 24.2794C44.9894 24.2794 45.3555 24.4674 45.6249 24.8435C45.8985 25.2175 46.0353 25.7237 46.0353 26.3601C46.0353 26.9985 45.8985 27.5048 45.6249 27.8788Z" fill="#ED5221"/>
<path d="M53.1113 28.3395L53.1092 28.3375C53.044 28.2755 52.964 28.2238 52.8672 28.1825C52.7725 28.1432 52.6757 28.0957 52.5747 28.0399C52.48 27.9821 52.3979 27.8891 52.3284 27.761C52.2632 27.6308 52.2316 27.4655 52.2316 27.2672V24.3641C52.2316 23.9963 52.0506 23.8125 51.6866 23.8125H49.8851C49.7652 23.8125 49.6621 23.8455 49.5779 23.9116C49.4958 23.9736 49.4537 24.0542 49.4537 24.1513C49.4537 24.234 49.4748 24.3021 49.5147 24.3538C49.5589 24.4075 49.6136 24.4468 49.6789 24.4695C49.7441 24.4881 49.8157 24.5212 49.8893 24.5646C49.9651 24.6059 50.0345 24.6575 50.0998 24.7133C50.165 24.767 50.2176 24.858 50.2597 24.9861C50.3039 25.1121 50.3271 25.2691 50.3271 25.4551V27.2672C50.3271 27.4655 50.2934 27.6308 50.224 27.761C50.1587 27.8891 50.0787 27.9821 49.9819 28.0399C49.8872 28.0957 49.7904 28.1432 49.6957 28.1825C49.5989 28.2238 49.5168 28.2755 49.4495 28.3375C49.3843 28.3974 49.3506 28.4759 49.3506 28.5709C49.3506 28.5854 49.3506 28.5999 49.3548 28.6123C49.3632 28.6908 49.4053 28.759 49.4748 28.8147C49.5589 28.8788 49.6621 28.9098 49.782 28.9098H52.7809C52.9009 28.9098 53.0019 28.8788 53.084 28.8147C53.1681 28.7486 53.2123 28.668 53.2123 28.5709C53.2123 28.478 53.1787 28.3994 53.1113 28.3395ZM52.1243 21.9549C52.0738 21.8103 51.9875 21.6801 51.8676 21.5665C51.6613 21.364 51.4109 21.2628 51.1163 21.2628C50.8237 21.2628 50.5712 21.364 50.3628 21.5665C50.2829 21.6429 50.2197 21.7256 50.1713 21.8144C50.0935 21.9591 50.0535 22.1182 50.0535 22.2938C50.0535 22.5789 50.1566 22.8227 50.3628 23.0252C50.5712 23.2236 50.8237 23.3248 51.1163 23.3248C51.4109 23.3248 51.6613 23.2236 51.8676 23.0252C52.0759 22.8227 52.1811 22.5789 52.1811 22.2938C52.1811 22.174 52.1622 22.0603 52.1243 21.9549Z" fill="#ED5221"/>
<path d="M59.9538 27.4944C59.9412 27.4738 59.9244 27.4572 59.9033 27.4407C59.8234 27.3787 59.7287 27.3622 59.6213 27.3911C59.514 27.418 59.4193 27.482 59.333 27.5853C59.3288 27.5915 59.3246 27.5957 59.3204 27.6019H59.3183C59.1373 27.8188 58.9121 27.9882 58.6449 28.1081C58.3734 28.2279 58.0808 28.2878 57.7673 28.2878C57.4179 28.2878 57.1086 28.23 56.8371 28.1143C56.7487 28.075 56.6666 28.0316 56.5909 27.982C56.4351 27.8849 56.3047 27.7692 56.1952 27.6349C56.0374 27.4366 55.9174 27.2175 55.8354 26.9779C55.7533 26.7403 55.7091 26.4861 55.7028 26.2175H59.9854C59.9602 25.3993 59.6929 24.7608 59.1836 24.3001C58.6743 23.8393 57.9882 23.6079 57.1254 23.6079C56.0984 23.6079 55.2671 23.8641 54.6358 24.3786C54.0023 24.8931 53.6846 25.5501 53.6846 26.3518C53.6846 27.0936 53.956 27.7134 54.4969 28.2114C54.5453 28.2568 54.5979 28.3002 54.6505 28.3436C55.2945 28.8581 56.1384 29.1143 57.1864 29.1143C57.7757 29.1143 58.3081 29.0089 58.7837 28.7961C59.2594 28.5833 59.6361 28.2816 59.9139 27.8891C59.9707 27.8064 60.0001 27.7238 60.0001 27.6411C60.0001 27.5853 59.9854 27.5357 59.9538 27.4944ZM56.2268 24.5831C56.473 24.3083 56.7761 24.1699 57.1359 24.1699C57.4495 24.1699 57.7084 24.3083 57.9104 24.5831C58.1124 24.8559 58.2218 25.2133 58.2387 25.6596H55.7491C55.8206 25.2133 55.9806 24.8559 56.2268 24.5831Z" fill="#ED5221"/>
<path d="M23.691 23.2195C23.691 24.0232 23.2196 24.4241 22.2747 24.4241H20.791V21.8744H22.2747C22.6808 21.8744 23.0091 21.9777 23.2512 22.1822C23.2722 22.1988 23.2911 22.2153 23.3101 22.2339C23.5647 22.4736 23.691 22.8021 23.691 23.2195Z" fill="#121212"/>
</svg>
