<svg width="71" height="64" viewBox="0 0 71 64" fill="none" xmlns="http://www.w3.org/2000/svg">
<path d="M71 15.2107L43.8185 47.2332L41.8592 49.5475L35.5031 57.0332L29.977 63.542C29.5142 64.0865 28.695 64.1555 28.1473 63.6954L20.412 57.2035C19.8628 56.7434 19.7949 55.9275 20.2593 55.383L27.18 47.2317L47.4362 23.3605L42.1446 18.9206C39.6993 16.8686 36.043 17.1768 33.9789 19.6077L18.8585 37.4225L0 15.2076L9.71772 7.0563L9.72544 7.06397C16.3422 14.8595 29.1408 10.2064 29.1408 0.0076684V0H41.8607C41.8607 10.2003 54.6593 14.8518 61.2761 7.0563L71 15.2107Z" fill="#02DF82"/>
</svg>
