<svg width="64" height="64" viewBox="0 0 64 64" fill="none" xmlns="http://www.w3.org/2000/svg">
<mask id="mask0_50_16" style="mask-type:alpha" maskUnits="userSpaceOnUse" x="0" y="0" width="64" height="64">
<rect width="64" height="64" fill="#02DF82"/>
</mask>
<g mask="url(#mask0_50_16)">
<mask id="mask1_50_16" style="mask-type:alpha" maskUnits="userSpaceOnUse" x="32" y="0" width="32" height="64">
<rect x="32" width="32" height="64" fill="#02DF82"/>
</mask>
<g mask="url(#mask1_50_16)">
<path d="M32 32C32 14.3269 46.3269 0 64 0V0V64V64C46.3269 64 32 49.6731 32 32V32Z" fill="#02DF82"/>
</g>
<mask id="mask2_50_16" style="mask-type:alpha" maskUnits="userSpaceOnUse" x="9" y="0" width="22" height="64">
<rect x="9.84604" width="20.9231" height="64" fill="#02DF82"/>
</mask>
<g mask="url(#mask2_50_16)">
<path d="M9.84604 32C9.84604 14.3269 24.1729 0 41.846 0V0V64V64C24.1729 64 9.84604 49.6731 9.84604 32V32Z" fill="#02DF82"/>
</g>
<mask id="mask3_50_16" style="mask-type:alpha" maskUnits="userSpaceOnUse" x="0" y="0" width="9" height="64">
<rect width="8.61538" height="64" fill="#02DF82"/>
</mask>
<g mask="url(#mask3_50_16)">
<path d="M0 23.3843C0 5.71119 14.3269 -8.61572 32 -8.61572V-8.61572V72.6151V72.6151C14.3269 72.6151 0 58.2882 0 40.6151V23.3843Z" fill="#02DF82"/>
</g>
</g>
</svg>
