<svg width="50" height="50" viewBox="0 0 50 50" fill="none" xmlns="http://www.w3.org/2000/svg">
<mask id="mask0_50_16" style="mask-type:alpha" maskUnits="userSpaceOnUse" x="0" y="0" width="50" height="50">
<rect width="50" height="50" fill="#02DF82"/>
</mask>
<g mask="url(#mask0_50_16)">
<mask id="mask1_50_16" style="mask-type:alpha" maskUnits="userSpaceOnUse" x="25" y="0" width="25" height="50">
<rect x="25" width="25" height="50" fill="#02DF82"/>
</mask>
<g mask="url(#mask1_50_16)">
<path d="M25 25C25 11.1929 36.1929 0 50 0V0V50V50C36.1929 50 25 38.8071 25 25V25Z" fill="#02DF82"/>
</g>
<mask id="mask2_50_16" style="mask-type:alpha" maskUnits="userSpaceOnUse" x="7" y="0" width="18" height="50">
<rect x="7.69223" width="16.3462" height="50" fill="#02DF82"/>
</mask>
<g mask="url(#mask2_50_16)">
<path d="M7.69223 25C7.69223 11.1929 18.8851 0 32.6922 0V0V50V50C18.8851 50 7.69223 38.8071 7.69223 25V25Z" fill="#02DF82"/>
</g>
<mask id="mask3_50_16" style="mask-type:alpha" maskUnits="userSpaceOnUse" x="0" y="0" width="7" height="50">
<rect width="6.73077" height="50" fill="#02DF82"/>
</mask>
<g mask="url(#mask3_50_16)">
<path d="M0 18.269C0 4.46192 11.1929 -6.73096 25 -6.73096V-6.73096V56.7306V56.7306C11.1929 56.7306 0 45.5377 0 31.7306V18.269Z" fill="#02DF82"/>
</g>
</g>
</svg>
