<svg width="20" height="20" viewBox="0 0 20 20" fill="none" xmlns="http://www.w3.org/2000/svg">
<mask id="mask0_50_15" style="mask-type:alpha" maskUnits="userSpaceOnUse" x="0" y="0" width="20" height="20">
<rect width="20" height="20" fill="#D9D9D9"/>
</mask>
<g mask="url(#mask0_50_15)">
<path d="M20 5.27801L12.3432 14.2843L11.7913 14.9352L10.0009 17.0406L8.44422 18.8712C8.31385 19.0243 8.08309 19.0437 7.92882 18.9143L5.74986 17.0885C5.59515 16.9591 5.57603 16.7296 5.70684 16.5765L7.65634 14.2839L13.3623 7.57014L11.8717 6.32142C11.1829 5.74429 10.153 5.83098 9.57151 6.51465L5.31224 11.5251L0 5.27715L2.73739 2.98459L2.73956 2.98674C4.60345 5.17923 8.20868 3.87055 8.20868 1.00216V1H11.7918C11.7918 3.86883 15.397 5.17708 17.2609 2.98459L20 5.27801Z" fill="#02DF82"/>
</g>
</svg>
