<svg width="20" height="20" viewBox="0 0 20 20" fill="none" xmlns="http://www.w3.org/2000/svg">
<mask id="mask0_50_16" style="mask-type:alpha" maskUnits="userSpaceOnUse" x="0" y="0" width="20" height="20">
<rect width="20" height="20" fill="#02DF82"/>
</mask>
<g mask="url(#mask0_50_16)">
<mask id="mask1_50_16" style="mask-type:alpha" maskUnits="userSpaceOnUse" x="10" y="0" width="10" height="20">
<rect x="10" width="10" height="20" fill="#02DF82"/>
</mask>
<g mask="url(#mask1_50_16)">
<path d="M10 10C10 4.47715 14.4772 0 20 0V0V20V20C14.4772 20 10 15.5228 10 10V10Z" fill="#02DF82"/>
</g>
<mask id="mask2_50_16" style="mask-type:alpha" maskUnits="userSpaceOnUse" x="3" y="0" width="7" height="20">
<rect x="3.07689" width="6.53846" height="20" fill="#02DF82"/>
</mask>
<g mask="url(#mask2_50_16)">
<path d="M3.07689 10C3.07689 4.47715 7.55404 0 13.0769 0V0V20V20C7.55404 20 3.07689 15.5228 3.07689 10V10Z" fill="#02DF82"/>
</g>
<mask id="mask3_50_16" style="mask-type:alpha" maskUnits="userSpaceOnUse" x="0" y="0" width="3" height="20">
<rect width="2.69231" height="20" fill="#02DF82"/>
</mask>
<g mask="url(#mask3_50_16)">
<path d="M0 7.30761C0 1.78476 4.47715 -2.69238 10 -2.69238V-2.69238V22.6922V22.6922C4.47715 22.6922 0 18.2151 0 12.6922V7.30761Z" fill="#02DF82"/>
</g>
</g>
</svg>
