<svg width="24" height="24" viewBox="0 0 24 24" fill="none" xmlns="http://www.w3.org/2000/svg">
<g clip-path="url(#clip0_0_3135)">
<path d="M22.5675 7.72446L22.0507 7.44686C21.9941 7.41647 21.9457 7.37277 21.9097 7.31952C21.8737 7.26628 21.8511 7.20509 21.844 7.14121C21.6602 5.70041 21.7303 5.07397 21.2991 4.89493C20.7956 4.68378 20.2677 5.45973 19.9159 5.79676L19.4279 6.26447C19.3338 6.35529 19.202 6.39368 19.0735 6.36673C18.3862 6.21796 18.5796 6.27703 18.237 6.17846C17.5515 5.98171 17.007 5.85398 16.753 6.14745C16.4732 6.46935 16.7567 7.02529 17.1259 7.6654C17.2983 7.96441 17.1783 7.75732 17.4928 8.39336C17.5497 8.51075 17.5452 8.64844 17.4803 8.76214C17.2126 9.22063 17.2747 9.14717 17.0797 9.43473C16.7117 9.97923 16.4238 10.4588 16.6238 10.8154C16.9265 11.358 17.8793 11.0339 18.3256 10.9726L18.9192 10.8914C19.0477 10.8729 19.1787 10.9206 19.2662 11.0173L19.6863 11.4783C19.9639 11.7825 20.5638 12.7715 21.1397 12.5186C21.5797 12.3178 21.5583 11.2938 21.6306 10.8951L21.7362 10.3067C21.7595 10.1782 21.844 10.0693 21.9632 10.0154L22.5845 9.73485C22.961 9.56504 24.0548 9.30516 23.9829 8.70751C23.9245 8.21912 22.93 7.91864 22.5675 7.72446ZM22.3567 9.22986L21.7347 9.51115C21.5944 9.57476 21.4717 9.67148 21.377 9.79302C21.2824 9.91455 21.2187 10.0572 21.1913 10.2088L21.0854 10.7969C21.0485 11.0036 21.0082 11.729 20.9008 11.9881C20.6679 11.8637 20.2216 11.2439 20.0957 11.1055L19.676 10.6444C19.5721 10.5306 19.4422 10.4436 19.2973 10.3911C19.1524 10.3385 18.997 10.322 18.8443 10.3428L18.2507 10.4241C18.0931 10.4455 17.2451 10.65 17.113 10.5606C17.0823 10.3702 17.5936 9.68206 17.6977 9.4986C17.8044 9.23465 18.2917 8.77248 17.9915 8.15231C17.6999 7.56277 17.7907 7.70933 17.6054 7.38817C17.508 7.21947 17.2304 6.73846 17.1957 6.52657C17.4637 6.5059 18.1451 6.73957 18.3548 6.78313L18.9609 6.90864C19.1118 6.93984 19.2679 6.93389 19.416 6.89132C19.564 6.84875 19.6995 6.77083 19.8107 6.66426C20.2862 6.19914 20.2648 6.24897 20.5837 5.89643C20.7041 5.76354 20.9115 5.5306 21.0776 5.43647C21.1349 5.6144 21.147 5.94811 21.2936 7.20212C21.3106 7.35527 21.3645 7.502 21.4508 7.62966C21.5371 7.75731 21.6532 7.86206 21.789 7.93488C22.3339 8.21986 22.198 8.17113 22.5838 8.34094C22.7728 8.42363 23.2397 8.62925 23.4003 8.76657C23.1977 8.94192 22.5269 9.15307 22.3567 9.22986ZM9.78645 7.25933C9.58416 7.55761 9.33351 7.92897 9.49925 8.22429C9.73293 8.64254 10.3955 8.40997 10.6584 8.37454C10.9711 8.34722 11.0663 8.27856 11.1482 8.36863C11.4528 8.70899 11.3598 8.59049 11.4908 8.75661C11.7345 9.06669 12.0674 9.48789 12.4285 9.32251C12.7681 9.16821 12.743 8.50891 12.7924 8.2409C12.8618 7.94115 12.8271 7.8245 12.9379 7.7743L13.3222 7.60043C13.6024 7.47418 14.3041 7.31471 14.2491 6.85622C14.2052 6.48818 13.5928 6.31283 13.3185 6.16739C13.0608 6.01235 12.9386 6.00792 12.9253 5.88794L12.8242 4.97393C12.8079 4.82516 12.7736 4.51618 12.5241 4.41282C12.1365 4.25039 11.7869 4.76868 11.555 4.99165C11.2834 5.22975 11.249 5.34086 11.1279 5.31724C10.6794 5.21978 10.8223 5.26149 10.6193 5.2028C10.1586 5.07064 9.78867 4.98722 9.59117 5.21535C9.30877 5.54094 9.7285 6.09245 9.87689 6.39552C9.99355 6.67165 10.0895 6.74437 10.0294 6.85032C9.82448 7.20101 9.91639 7.0659 9.78645 7.25933ZM10.5107 7.12386C10.7909 6.63067 10.3546 6.20467 10.0995 5.64209C10.4421 5.70743 10.0759 5.65575 11.0157 5.85952C11.5133 5.96214 11.7485 5.53097 11.9386 5.39107C12.0597 5.27478 12.1737 5.13266 12.2738 5.03705L12.3753 5.94885C12.4358 6.50073 13.0198 6.60114 13.5817 6.90163C13.3938 6.99096 13.1882 7.05298 13.0944 7.0958C12.8943 7.21947 12.4041 7.27705 12.3129 7.77873L12.2472 8.14271C12.2332 8.22355 12.2088 8.53105 12.1767 8.70972C12.029 8.55837 11.8925 8.3642 11.8171 8.28151C11.654 8.14308 11.4487 7.70785 10.9511 7.77577C10.1298 7.89501 10.211 7.91125 10.0319 7.91827C10.1213 7.73074 10.1191 7.79534 10.5107 7.12386Z" fill="#222222"/>
<path d="M22.3592 17.3856C22.2817 16.8001 21.7427 16.4564 21.2023 16.5834C17.4484 17.4627 13.4553 16.5037 10.5139 14.0193C7.16573 10.5463 6.21776 5.58678 7.7992 1.26699C8.07052 0.520201 7.3732 -0.202595 6.62382 0.0521186C6.61644 0.0535952 6.60869 0.0528569 6.60094 0.0547027C6.59614 0.0561793 6.58986 0.0606091 6.58469 0.0620857C6.35767 0.149943 5.80542 0.515402 5.6046 0.650142C-0.907204 5.08806 -1.94562 14.3714 3.63703 20.1405C8.9886 25.6541 18.2886 25.2795 23.0602 18.8928C23.5191 18.2844 23.1141 17.4262 22.3592 17.3856ZM6.17309 0.938817C4.72602 5.68018 6.17161 11.0447 10.1429 14.4312C10.1806 14.4497 14.74 18.6647 21.3293 17.1223C21.6818 17.0389 21.969 17.4291 21.7365 17.7418C17.472 23.4326 9.29425 24.1882 4.02464 19.744C-1.29739 14.302 -0.385964 5.15709 6.17272 0.938817H6.17309Z" fill="#222222"/>
<path d="M2.46666 10.1476C2.47102 10.1106 2.4679 10.0732 2.45749 10.0375C2.44707 10.0018 2.42957 9.96858 2.40603 9.93979C2.38249 9.911 2.35339 9.88726 2.32047 9.86996C2.28755 9.85267 2.25149 9.84218 2.21443 9.83913C2.17737 9.83608 2.14007 9.84053 2.10477 9.8522C2.06946 9.86388 2.03687 9.88255 2.00894 9.9071C1.98101 9.93165 1.95831 9.96157 1.9422 9.99508C1.92608 10.0286 1.91688 10.065 1.91515 10.1022C1.78816 11.647 2.04841 13.1982 2.66711 14.5884C2.69697 14.6555 2.75227 14.708 2.82084 14.7344C2.88941 14.7607 2.96564 14.7588 3.03275 14.7289C3.09986 14.699 3.15237 14.6437 3.17871 14.5752C3.20505 14.5066 3.20307 14.4304 3.17321 14.3632C2.5918 13.0576 2.34779 11.5998 2.46666 10.1476ZM2.49139 8.72855C2.55169 8.72851 2.61034 8.70881 2.65844 8.67244C2.70653 8.63606 2.74146 8.585 2.75792 8.52699C2.79077 8.41108 2.82621 8.29553 2.8635 8.18073C2.87621 8.14588 2.8818 8.10883 2.87991 8.07178C2.87803 8.03473 2.86872 7.99844 2.85254 7.96506C2.83636 7.93167 2.81363 7.90188 2.78572 7.87746C2.7578 7.85303 2.72525 7.83446 2.69002 7.82286C2.65478 7.81125 2.61757 7.80685 2.5806 7.8099C2.54363 7.81296 2.50765 7.82341 2.4748 7.84064C2.44195 7.85788 2.41289 7.88153 2.38936 7.91021C2.36583 7.93889 2.34831 7.97201 2.33783 8.0076C2.29759 8.12942 2.2603 8.25271 2.22524 8.37638C2.2136 8.41753 2.21166 8.46082 2.21957 8.50284C2.22747 8.54487 2.245 8.5845 2.27078 8.61862C2.29657 8.65273 2.3299 8.68041 2.36818 8.69949C2.40645 8.71856 2.44863 8.72851 2.49139 8.72855Z" fill="#222222"/>
</g>
<defs>
<clipPath id="clip0_0_3135">
<rect width="24" height="24" fill="white"/>
</clipPath>
</defs>
</svg>
