<svg width="60" height="34" viewBox="0 0 60 34" fill="none" xmlns="http://www.w3.org/2000/svg">
<path d="M16.8178 8.25668V16.5126H8.4089C3.77222 16.5126 0 12.809 0 8.25668C0 3.7036 3.77222 0 8.4089 0C13.0456 0 16.8178 3.7036 16.8178 8.25668Z" fill="#222222"/>
<path d="M16.8178 17.4882V25.7441C16.8178 30.2964 13.0456 34 8.4089 34C3.77222 34 0 30.2964 0 25.7441C0 21.1918 3.77222 17.4882 8.4089 17.4882H16.8178Z" fill="#222222"/>
<path d="M51.5678 16.5126H17.9141V8.25668C17.9141 3.7036 21.6863 0 26.323 0H51.5678C46.9311 0 43.1589 3.7036 43.1589 8.25668C43.1589 12.809 46.9311 16.5126 51.5678 16.5126Z" fill="#222222"/>
<path d="M59.977 8.25668C59.977 12.809 56.2048 16.5126 51.5681 16.5126C46.9314 16.5126 43.1592 12.809 43.1592 8.25668C43.1592 3.7036 46.9314 0 51.5681 0C56.2048 0 59.977 3.7036 59.977 8.25668Z" fill="#ED5221"/>
<path d="M25.1128 24.9116C24.995 24.8455 24.934 24.7752 24.9277 24.7029C24.9234 24.6265 24.9718 24.5397 25.0708 24.4447C25.2328 24.2876 25.3591 24.0913 25.4517 23.8558C25.5464 23.6202 25.5948 23.3785 25.5948 23.1305C25.5948 22.678 25.4369 22.3041 25.1171 22.0086C25.0202 21.9177 24.9066 21.833 24.7782 21.7565C24.2353 21.428 23.4692 21.2627 22.4843 21.2627H18.3406C18.2206 21.2627 18.1175 21.2958 18.0333 21.3619C17.9513 21.4259 17.9092 21.5044 17.9092 21.6016C17.9092 21.6966 17.9407 21.7772 18.006 21.8412C18.0754 21.8991 18.1575 21.9507 18.2522 21.99C18.349 22.0293 18.4458 22.0768 18.5405 22.1346C18.6373 22.1904 18.7173 22.2834 18.7825 22.4136C18.8288 22.5024 18.8604 22.6078 18.8751 22.7318C18.8815 22.7855 18.8857 22.8433 18.8857 22.9053V27.2671C18.8857 27.4076 18.8667 27.5316 18.8331 27.639C18.8183 27.6824 18.8015 27.7237 18.7825 27.7609C18.7173 27.889 18.6373 27.982 18.5405 28.0399C18.4458 28.0956 18.349 28.1432 18.2522 28.1824C18.1575 28.2238 18.0754 28.2754 18.006 28.3374C17.9407 28.3973 17.9092 28.4758 17.9092 28.5709C17.9092 28.668 17.9513 28.7486 18.0333 28.8147C18.1175 28.8787 18.2206 28.9097 18.3406 28.9097H22.9052C23.947 28.9097 24.7446 28.7341 25.2938 28.3828C25.3107 28.3746 25.3275 28.3622 25.3443 28.3519C25.8978 27.9799 26.1756 27.4324 26.1756 26.7092C26.1756 25.9158 25.82 25.3166 25.1128 24.9116ZM20.7902 21.8743H22.2739C22.6801 21.8743 23.0084 21.9776 23.2504 22.1822C23.2714 22.1987 23.2904 22.2152 23.3093 22.2338C23.5639 22.4735 23.6902 22.802 23.6902 23.2194C23.6902 24.0231 23.2188 24.424 22.2739 24.424H20.7902V21.8743ZM22.3749 28.2981H20.7902V25.0377H22.3749C22.9347 25.0377 23.3661 25.1864 23.6755 25.484C23.9869 25.7794 24.1427 26.1947 24.1427 26.7299C24.1427 27.2444 23.9912 27.6349 23.6902 27.8994C23.5492 28.0254 23.3766 28.1225 23.1704 28.1886C22.9452 28.2609 22.678 28.2981 22.3749 28.2981Z" fill="#ED5221"/>
<path d="M24.1435 26.7299C24.1435 27.2444 23.9919 27.6349 23.691 27.8994C23.55 28.0255 23.3774 28.1226 23.1712 28.1887C22.946 28.261 22.6787 28.2982 22.3757 28.2982H20.791V25.0377H22.3757C22.9355 25.0377 23.3669 25.1865 23.6763 25.484C23.9877 25.7795 24.1435 26.1948 24.1435 26.7299Z" fill="white"/>
<path d="M31.2549 23.6078C31.741 23.6078 32.1577 23.7442 32.5029 24.0169C32.848 24.2855 33.0206 24.612 33.0206 24.9983C33.0206 25.2132 32.9532 25.3951 32.8143 25.5418C32.6817 25.6885 32.5239 25.7794 32.3429 25.8166C32.164 25.8538 31.983 25.8372 31.7978 25.767C31.6127 25.6947 31.4738 25.5686 31.3812 25.393C31.3433 25.3207 31.3033 25.2132 31.2633 25.0748C31.2254 24.9364 31.1918 24.8227 31.1602 24.7359C31.1328 24.6471 31.0739 24.5665 30.9855 24.4963C30.8992 24.4239 30.7856 24.3867 30.6425 24.3867C30.4068 24.3867 30.1963 24.4756 30.0111 24.6512C29.8259 24.8269 29.6913 25.0355 29.605 25.2794C29.5187 25.5211 29.4766 25.7649 29.4766 26.0067V27.2712C29.4766 27.4695 29.5082 27.6348 29.5734 27.765C29.6429 27.8952 29.7249 27.9881 29.8196 28.0439C29.9185 28.0997 30.0175 28.1493 30.1122 28.1886C30.209 28.2278 30.2889 28.2795 30.3542 28.3435C30.4236 28.4035 30.4573 28.482 30.4573 28.577C30.4573 28.6721 30.4152 28.7547 30.3289 28.8208C30.2468 28.8849 30.1458 28.9159 30.0259 28.9159H27.0291C26.9091 28.9159 26.806 28.8849 26.7218 28.8208C26.6397 28.7547 26.5977 28.6741 26.5977 28.577C26.5977 28.4799 26.6292 28.4035 26.6945 28.3435C26.7639 28.2795 26.846 28.2299 26.9407 28.1886C27.0375 28.1493 27.1322 28.0997 27.229 28.0439C27.3258 27.9881 27.4058 27.8952 27.471 27.765C27.5405 27.6348 27.5741 27.4716 27.5741 27.2712V25.4591C27.5741 25.2732 27.551 25.1182 27.5068 24.9901C27.4647 24.8599 27.4121 24.769 27.3469 24.7153C27.2816 24.6595 27.2122 24.6099 27.1364 24.5665C27.0606 24.5231 26.9912 24.4921 26.926 24.4715C26.8607 24.4487 26.806 24.4095 26.7618 24.3578C26.7197 24.3041 26.7008 24.2359 26.7008 24.1533C26.7008 24.0562 26.7429 23.9776 26.8249 23.9136C26.9112 23.8475 27.0122 23.8144 27.1322 23.8144H28.9336C29.2956 23.8144 29.4787 23.9983 29.4787 24.3661L29.5608 24.2917C29.6197 24.238 29.6997 24.176 29.8028 24.1016C29.908 24.0252 30.028 23.9508 30.1627 23.8785C30.2995 23.802 30.4657 23.74 30.6614 23.6884C30.8529 23.6346 31.0529 23.6078 31.2549 23.6078Z" fill="#ED5221"/>
<path d="M39.4547 24.3785C38.8129 23.864 37.9816 23.6078 36.9588 23.6078C35.936 23.6078 35.1026 23.864 34.4587 24.3785C33.8189 24.893 33.499 25.5542 33.499 26.36C33.499 27.1679 33.8189 27.8291 34.4587 28.3435C34.7449 28.5729 35.069 28.7506 35.4288 28.8766C35.4309 28.8766 35.4309 28.8766 35.433 28.8766C35.8813 29.0357 36.3906 29.1142 36.9588 29.1142C37.4912 29.1142 37.9711 29.046 38.3983 28.9055C38.796 28.7795 39.1454 28.5915 39.4547 28.3435C40.0966 27.8291 40.4186 27.1679 40.4186 26.36C40.4186 25.5542 40.0966 24.893 39.4547 24.3785ZM38.0068 27.9303C37.729 28.3435 37.3797 28.5522 36.9588 28.5522C36.5379 28.5522 36.1886 28.3435 35.9108 27.9303C35.6351 27.5109 35.4962 26.9881 35.4962 26.36C35.4962 25.7339 35.6351 25.2132 35.9108 24.7979C36.1886 24.3785 36.5379 24.1698 36.9588 24.1698C37.3797 24.1698 37.729 24.3785 38.0068 24.7979C38.2825 25.2132 38.4214 25.7339 38.4214 26.36C38.4214 26.9881 38.2825 27.5109 38.0068 27.9303Z" fill="#ED5221"/>
<path d="M48.8279 28.3374C48.7627 28.2754 48.6827 28.2237 48.588 28.1824C48.4912 28.1432 48.3944 28.0956 48.2955 28.0399C48.1987 27.982 48.1166 27.889 48.0493 27.7609C47.984 27.6307 47.9504 27.4654 47.9504 27.2671V21.8144C47.9504 21.7689 47.9483 21.7276 47.9419 21.6863C47.9041 21.4032 47.7252 21.2627 47.4074 21.2627H45.6102C45.4902 21.2627 45.3871 21.2958 45.3008 21.3619C45.2272 21.4197 45.1872 21.4879 45.183 21.5726C45.1788 21.5809 45.1788 21.5912 45.1788 21.6016C45.1788 21.6842 45.1998 21.7524 45.2398 21.8061C45.284 21.8578 45.3387 21.897 45.4039 21.9197C45.4692 21.9404 45.5386 21.9714 45.6144 22.0148C45.6901 22.0582 45.7596 22.1078 45.8248 22.1636C45.8901 22.2173 45.9427 22.3082 45.9848 22.4384C46.029 22.5644 46.0521 22.7194 46.0521 22.9053V24.3537C45.7912 24.112 45.4818 23.9281 45.1219 23.8021C44.7621 23.6719 44.3938 23.6078 44.0171 23.6078C43.1795 23.6078 42.4934 23.8641 41.9589 24.3785C41.4265 24.891 41.1592 25.5501 41.1592 26.36C41.1592 27.17 41.4265 27.8332 41.9589 28.3477C42.1925 28.5709 42.4555 28.7444 42.7481 28.8705C43.1227 29.0337 43.5457 29.1143 44.0171 29.1143C44.3938 29.1143 44.7621 29.0502 45.1219 28.9201C45.2251 28.8829 45.3261 28.8415 45.4208 28.7961C45.6565 28.6824 45.8669 28.5399 46.0521 28.3684C46.0521 28.544 46.0963 28.6783 46.1805 28.7692C46.2731 28.8622 46.4099 28.9097 46.5951 28.9097H48.4996C48.6196 28.9097 48.7206 28.8787 48.8027 28.8147C48.8679 28.7651 48.9079 28.7052 48.9226 28.637C48.929 28.6163 48.9311 28.5936 48.9311 28.5709C48.9311 28.4758 48.8974 28.3973 48.8279 28.3374ZM45.6249 27.8787C45.3555 28.2547 44.9894 28.4428 44.5264 28.4428C44.2696 28.4428 44.0423 28.3766 43.8445 28.2423C43.6446 28.106 43.491 27.9324 43.3815 27.7196C43.2742 27.5047 43.1942 27.2816 43.1395 27.0522C43.089 26.8208 43.0637 26.5894 43.0637 26.36C43.0637 26.1327 43.089 25.9034 43.1395 25.674C43.1942 25.4406 43.2742 25.2195 43.3815 25.0067C43.491 24.7918 43.6446 24.6161 43.8445 24.4839C44.0423 24.3475 44.2696 24.2794 44.5264 24.2794C44.9894 24.2794 45.3555 24.4674 45.6249 24.8434C45.8985 25.2174 46.0353 25.7236 46.0353 26.36C46.0353 26.9985 45.8985 27.5047 45.6249 27.8787Z" fill="#ED5221"/>
<path d="M53.1113 28.3395L53.1092 28.3374C53.044 28.2754 52.964 28.2238 52.8672 28.1824C52.7725 28.1432 52.6757 28.0956 52.5747 28.0399C52.48 27.982 52.3979 27.889 52.3284 27.7609C52.2632 27.6307 52.2316 27.4655 52.2316 27.2671V24.3641C52.2316 23.9963 52.0506 23.8124 51.6866 23.8124H49.8851C49.7652 23.8124 49.6621 23.8455 49.5779 23.9116C49.4958 23.9736 49.4537 24.0541 49.4537 24.1513C49.4537 24.2339 49.4748 24.3021 49.5147 24.3537C49.5589 24.4075 49.6136 24.4467 49.6789 24.4695C49.7441 24.488 49.8157 24.5211 49.8893 24.5645C49.9651 24.6058 50.0345 24.6575 50.0998 24.7133C50.165 24.767 50.2176 24.8579 50.2597 24.986C50.3039 25.112 50.3271 25.2691 50.3271 25.455V27.2671C50.3271 27.4655 50.2934 27.6307 50.224 27.7609C50.1587 27.889 50.0787 27.982 49.9819 28.0399C49.8872 28.0956 49.7904 28.1432 49.6957 28.1824C49.5989 28.2238 49.5168 28.2754 49.4495 28.3374C49.3843 28.3973 49.3506 28.4758 49.3506 28.5709C49.3506 28.5853 49.3506 28.5998 49.3548 28.6122C49.3632 28.6907 49.4053 28.7589 49.4748 28.8147C49.5589 28.8787 49.6621 28.9097 49.782 28.9097H52.7809C52.9009 28.9097 53.0019 28.8787 53.084 28.8147C53.1681 28.7486 53.2123 28.668 53.2123 28.5709C53.2123 28.4779 53.1787 28.3994 53.1113 28.3395ZM52.1243 21.9549C52.0738 21.8102 51.9875 21.6801 51.8676 21.5664C51.6613 21.3639 51.4109 21.2627 51.1163 21.2627C50.8237 21.2627 50.5712 21.3639 50.3628 21.5664C50.2829 21.6429 50.2197 21.7255 50.1713 21.8144C50.0935 21.959 50.0535 22.1181 50.0535 22.2937C50.0535 22.5789 50.1566 22.8227 50.3628 23.0252C50.5712 23.2235 50.8237 23.3248 51.1163 23.3248C51.4109 23.3248 51.6613 23.2235 51.8676 23.0252C52.0759 22.8227 52.1811 22.5789 52.1811 22.2937C52.1811 22.1739 52.1622 22.0603 52.1243 21.9549Z" fill="#ED5221"/>
<path d="M59.9538 27.4943C59.9412 27.4737 59.9244 27.4571 59.9033 27.4406C59.8234 27.3786 59.7287 27.3621 59.6213 27.391C59.514 27.4179 59.4193 27.4819 59.333 27.5852C59.3288 27.5914 59.3246 27.5956 59.3204 27.6018H59.3183C59.1373 27.8187 58.9121 27.9881 58.6449 28.108C58.3734 28.2278 58.0808 28.2877 57.7673 28.2877C57.4179 28.2877 57.1086 28.2299 56.8371 28.1142C56.7487 28.0749 56.6666 28.0315 56.5909 27.9819C56.4351 27.8848 56.3047 27.7691 56.1952 27.6348C56.0374 27.4365 55.9174 27.2175 55.8354 26.9778C55.7533 26.7402 55.7091 26.486 55.7028 26.2174H59.9854C59.9602 25.3992 59.6929 24.7607 59.1836 24.3C58.6743 23.8392 57.9882 23.6078 57.1254 23.6078C56.0984 23.6078 55.2671 23.864 54.6358 24.3785C54.0023 24.893 53.6846 25.55 53.6846 26.3517C53.6846 27.0935 53.956 27.7133 54.4969 28.2113C54.5453 28.2568 54.5979 28.3001 54.6505 28.3435C55.2945 28.858 56.1384 29.1142 57.1864 29.1142C57.7757 29.1142 58.3081 29.0089 58.7837 28.796C59.2594 28.5832 59.6361 28.2815 59.9139 27.889C59.9707 27.8063 60.0001 27.7237 60.0001 27.641C60.0001 27.5852 59.9854 27.5356 59.9538 27.4943ZM56.2268 24.583C56.473 24.3082 56.7761 24.1698 57.1359 24.1698C57.4495 24.1698 57.7084 24.3082 57.9104 24.583C58.1124 24.8558 58.2218 25.2132 58.2387 25.6595H55.7491C55.8206 25.2132 55.9806 24.8558 56.2268 24.583Z" fill="#ED5221"/>
<path d="M23.691 23.2194C23.691 24.0231 23.2196 24.424 22.2747 24.424H20.791V21.8743H22.2747C22.6808 21.8743 23.0091 21.9776 23.2512 22.1821C23.2722 22.1987 23.2911 22.2152 23.3101 22.2338C23.5647 22.4735 23.691 22.802 23.691 23.2194Z" fill="white"/>
</svg>
