<svg width="20" height="20" viewBox="0 0 20 20" fill="none" xmlns="http://www.w3.org/2000/svg">
<path d="M5.60593 4.85687V9.7133H2.80297C1.25741 9.7133 0 7.53472 0 4.85687C0 2.17859 1.25741 0 2.80297 0C4.34853 0 5.60593 2.17859 5.60593 4.85687Z" fill="#222222"/>
<path d="M5.60593 10.2871V15.1435C5.60593 17.8214 4.34853 20 2.80297 20C1.25741 20 0 17.8214 0 15.1435C0 12.4657 1.25741 10.2871 2.80297 10.2871H5.60593Z" fill="#222222"/>
<path d="M17.1894 9.7133H5.97144V4.85687C5.97144 2.17859 7.22884 0 8.7744 0H17.1894C15.6438 0 14.3864 2.17859 14.3864 4.85687C14.3864 7.53472 15.6438 9.7133 17.1894 9.7133Z" fill="#222222"/>
<path d="M19.9922 4.85687C19.9922 7.53472 18.7348 9.7133 17.1892 9.7133C15.6436 9.7133 14.3862 7.53472 14.3862 4.85687C14.3862 2.17859 15.6436 0 17.1892 0C18.7348 0 19.9922 2.17859 19.9922 4.85687Z" fill="#ED5221"/>
<path d="M8.37095 14.6533C8.33167 14.6144 8.31132 14.573 8.30922 14.5305C8.30782 14.4855 8.32395 14.4345 8.35692 14.3786C8.41094 14.2862 8.45303 14.1707 8.48389 14.0322C8.51546 13.8936 8.53159 13.7514 8.53159 13.6056C8.53159 13.3394 8.47898 13.1194 8.37235 12.9456C8.34008 12.8921 8.3022 12.8423 8.25941 12.7973C8.07843 12.6041 7.82308 12.5068 7.49478 12.5068H6.11353C6.07355 12.5068 6.03917 12.5263 6.01111 12.5652C5.98376 12.6029 5.96973 12.649 5.96973 12.7062C5.96973 12.7621 5.98025 12.8095 6.002 12.8472C6.02514 12.8812 6.0525 12.9116 6.08407 12.9347C6.11634 12.9578 6.14861 12.9857 6.18018 13.0197C6.21244 13.0526 6.2391 13.1073 6.26085 13.1838C6.27628 13.2361 6.2868 13.2981 6.29171 13.371C6.29382 13.4026 6.29522 13.4366 6.29522 13.4731V16.0388C6.29522 16.1215 6.28891 16.1944 6.27768 16.2576C6.27277 16.2831 6.26716 16.3074 6.26085 16.3293C6.2391 16.4047 6.21244 16.4594 6.18018 16.4934C6.14861 16.5262 6.11634 16.5542 6.08407 16.5773C6.0525 16.6016 6.02514 16.632 6.002 16.6684C5.98025 16.7037 5.96973 16.7499 5.96973 16.8058C5.96973 16.8629 5.98376 16.9103 6.01111 16.9492C6.03917 16.9869 6.07355 17.0051 6.11353 17.0051H7.63508C7.98232 17.0051 8.24819 16.9018 8.43128 16.6952C8.43689 16.6903 8.4425 16.683 8.44811 16.6769C8.63261 16.4582 8.72521 16.1361 8.72521 15.7107C8.72521 15.244 8.60665 14.8915 8.37095 14.6533ZM6.93008 12.8666H7.42463C7.56002 12.8666 7.66945 12.9274 7.75013 13.0477C7.75714 13.0574 7.76345 13.0671 7.76977 13.0781C7.85465 13.2191 7.89674 13.4123 7.89674 13.6578C7.89674 14.1306 7.7396 14.3664 7.42463 14.3664H6.93008V12.8666ZM7.4583 16.6453H6.93008V14.7274H7.4583C7.6449 14.7274 7.78871 14.8149 7.89183 14.9899C7.99565 15.1637 8.04756 15.408 8.04756 15.7228C8.04756 16.0255 7.99705 16.2552 7.89674 16.4108C7.84974 16.4849 7.79222 16.542 7.72347 16.5809C7.64841 16.6235 7.55932 16.6453 7.4583 16.6453Z" fill="#ED5221"/>
<path d="M8.0479 15.7239C8.0479 16.0266 7.9974 16.2563 7.89708 16.4119C7.85008 16.486 7.79256 16.5431 7.72381 16.582C7.64875 16.6246 7.55966 16.6464 7.45865 16.6464H6.93042V14.7285H7.45865C7.64525 14.7285 7.78905 14.816 7.89217 14.991C7.99599 15.1649 8.0479 15.4091 8.0479 15.7239Z" fill="white"/>
<path d="M10.4184 13.8857C10.5804 13.8857 10.7193 13.966 10.8344 14.1264C10.9494 14.2844 11.0069 14.4764 11.0069 14.7037C11.0069 14.8301 10.9845 14.9371 10.9382 15.0234C10.894 15.1097 10.8414 15.1631 10.7811 15.185C10.7214 15.2069 10.6611 15.1972 10.5994 15.1559C10.5376 15.1133 10.4913 15.0392 10.4605 14.9359C10.4478 14.8933 10.4345 14.8301 10.4212 14.7487C10.4086 14.6673 10.3973 14.6004 10.3868 14.5494C10.3777 14.4971 10.3581 14.4497 10.3286 14.4084C10.2998 14.3658 10.2619 14.344 10.2142 14.344C10.1357 14.344 10.0655 14.3962 10.0038 14.4995C9.94206 14.6028 9.89717 14.7256 9.86841 14.869C9.83964 15.0112 9.82561 15.1546 9.82561 15.2968V16.0407C9.82561 16.1574 9.83614 16.2546 9.85788 16.3312C9.88103 16.4077 9.90839 16.4624 9.93996 16.4952C9.97293 16.5281 10.0059 16.5572 10.0375 16.5803C10.0697 16.6034 10.0964 16.6338 10.1181 16.6715C10.1413 16.7067 10.1525 16.7529 10.1525 16.8088C10.1525 16.8647 10.1385 16.9133 10.1097 16.9522C10.0824 16.9899 10.0487 17.0081 10.0087 17.0081H9.00977C8.96979 17.0081 8.93542 16.9899 8.90736 16.9522C8.88 16.9133 8.86597 16.8659 8.86597 16.8088C8.86597 16.7517 8.87649 16.7067 8.89824 16.6715C8.92138 16.6338 8.94874 16.6046 8.98031 16.5803C9.01258 16.5572 9.04415 16.5281 9.07642 16.4952C9.10868 16.4624 9.13534 16.4077 9.15709 16.3312C9.18024 16.2546 9.19146 16.1586 9.19146 16.0407V14.9748C9.19146 14.8654 9.18374 14.7742 9.16901 14.6989C9.15498 14.6223 9.13745 14.5688 9.1157 14.5372C9.09395 14.5044 9.0708 14.4752 9.04555 14.4497C9.0203 14.4242 8.99715 14.4059 8.9754 14.3938C8.95365 14.3804 8.93541 14.3573 8.92068 14.3269C8.90665 14.2953 8.90034 14.2552 8.90034 14.2066C8.90034 14.1495 8.91437 14.1033 8.94173 14.0656C8.97049 14.0267 9.00416 14.0073 9.04415 14.0073H9.64463C9.76529 14.0073 9.82632 14.1155 9.82632 14.3318L9.85367 14.288C9.87332 14.2564 9.89997 14.22 9.93435 14.1762C9.96942 14.1313 10.0094 14.0875 10.0543 14.045C10.0999 14 10.1553 13.9635 10.2206 13.9331C10.2844 13.9015 10.351 13.8857 10.4184 13.8857Z" fill="#ED5221"/>
<path d="M13.1515 14.3391C12.9375 14.0365 12.6604 13.8857 12.3195 13.8857C11.9786 13.8857 11.7008 14.0365 11.4861 14.3391C11.2729 14.6417 11.1663 15.0307 11.1663 15.5047C11.1663 15.9799 11.2729 16.3688 11.4861 16.6715C11.5815 16.8064 11.6896 16.9109 11.8095 16.9851C11.8102 16.9851 11.8102 16.9851 11.8109 16.9851C11.9604 17.0786 12.1301 17.1248 12.3195 17.1248C12.497 17.1248 12.6569 17.0847 12.7993 17.0021C12.9319 16.9279 13.0484 16.8173 13.1515 16.6715C13.3655 16.3688 13.4728 15.9799 13.4728 15.5047C13.4728 15.0307 13.3655 14.6417 13.1515 14.3391ZM12.6689 16.4284C12.5763 16.6715 12.4598 16.7942 12.3195 16.7942C12.1792 16.7942 12.0628 16.6715 11.9702 16.4284C11.8783 16.1817 11.832 15.8742 11.832 15.5047C11.832 15.1364 11.8783 14.8301 11.9702 14.5858C12.0628 14.3391 12.1792 14.2163 12.3195 14.2163C12.4598 14.2163 12.5763 14.3391 12.6689 14.5858C12.7608 14.8301 12.8071 15.1364 12.8071 15.5047C12.8071 15.8742 12.7608 16.1817 12.6689 16.4284Z" fill="#ED5221"/>
<path d="M16.276 16.6684C16.2542 16.632 16.2276 16.6016 16.196 16.5773C16.1637 16.5542 16.1315 16.5262 16.0985 16.4934C16.0662 16.4594 16.0389 16.4047 16.0164 16.3293C15.9947 16.2527 15.9835 16.1555 15.9835 16.0388V12.8314C15.9835 12.8046 15.9828 12.7803 15.9807 12.756C15.968 12.5895 15.9084 12.5068 15.8025 12.5068H15.2034C15.1634 12.5068 15.129 12.5263 15.1003 12.5652C15.0757 12.5992 15.0624 12.6393 15.061 12.6891C15.0596 12.694 15.0596 12.7001 15.0596 12.7062C15.0596 12.7548 15.0666 12.7949 15.0799 12.8265C15.0947 12.8569 15.1129 12.88 15.1346 12.8933C15.1564 12.9055 15.1795 12.9237 15.2048 12.9492C15.23 12.9748 15.2532 13.0039 15.2749 13.0368C15.2967 13.0684 15.3142 13.1218 15.3283 13.1984C15.343 13.2725 15.3507 13.3637 15.3507 13.4731V14.3251C15.2637 14.1829 15.1606 14.0747 15.0406 14.0006C14.9207 13.924 14.7979 13.8863 14.6724 13.8863C14.3932 13.8863 14.1645 14.037 13.9863 14.3397C13.8088 14.6411 13.7197 15.0288 13.7197 15.5053C13.7197 15.9817 13.8088 16.3719 13.9863 16.6745C14.0642 16.8058 14.1518 16.9079 14.2494 16.982C14.3742 17.078 14.5152 17.1254 14.6724 17.1254C14.7979 17.1254 14.9207 17.0877 15.0406 17.0112C15.075 16.9893 15.1087 16.965 15.1403 16.9382C15.2188 16.8714 15.289 16.7875 15.3507 16.6867C15.3507 16.79 15.3654 16.869 15.3935 16.9224C15.4244 16.9771 15.47 17.0051 15.5317 17.0051H16.1665C16.2065 17.0051 16.2402 16.9869 16.2676 16.9492C16.2893 16.92 16.3026 16.8848 16.3075 16.8447C16.3097 16.8325 16.3104 16.8191 16.3104 16.8058C16.3104 16.7499 16.2991 16.7037 16.276 16.6684ZM15.2083 16.3986C15.1185 16.6198 14.9965 16.7304 14.8421 16.7304C14.7565 16.7304 14.6808 16.6915 14.6148 16.6125C14.5482 16.5323 14.497 16.4302 14.4605 16.305C14.4247 16.1786 14.3981 16.0473 14.3798 15.9124C14.363 15.7763 14.3546 15.6402 14.3546 15.5053C14.3546 15.3716 14.363 15.2367 14.3798 15.1017C14.3981 14.9644 14.4247 14.8344 14.4605 14.7092C14.497 14.5828 14.5482 14.4795 14.6148 14.4017C14.6808 14.3215 14.7565 14.2813 14.8421 14.2813C14.9965 14.2813 15.1185 14.3919 15.2083 14.6132C15.2995 14.8331 15.3451 15.1309 15.3451 15.5053C15.3451 15.8808 15.2995 16.1786 15.2083 16.3986Z" fill="#ED5221"/>
<path d="M17.7038 16.6696L17.7031 16.6684C17.6813 16.632 17.6547 16.6016 17.6224 16.5773C17.5908 16.5542 17.5586 16.5262 17.5249 16.4934C17.4933 16.4594 17.466 16.4047 17.4428 16.3293C17.4211 16.2527 17.4105 16.1555 17.4105 16.0388V14.3312C17.4105 14.1148 17.3502 14.0067 17.2289 14.0067H16.6284C16.5884 14.0067 16.554 14.0261 16.526 14.065C16.4986 14.1015 16.4846 14.1489 16.4846 14.206C16.4846 14.2546 16.4916 14.2947 16.5049 14.3251C16.5196 14.3567 16.5379 14.3798 16.5596 14.3932C16.5814 14.4041 16.6052 14.4235 16.6298 14.4491C16.655 14.4734 16.6782 14.5038 16.6999 14.5366C16.7217 14.5682 16.7392 14.6217 16.7532 14.697C16.768 14.7712 16.7757 14.8635 16.7757 14.9729V16.0388C16.7757 16.1555 16.7645 16.2527 16.7413 16.3293C16.7196 16.4047 16.6929 16.4594 16.6606 16.4934C16.6291 16.5262 16.5968 16.5542 16.5652 16.5773C16.533 16.6016 16.5056 16.632 16.4832 16.6684C16.4614 16.7037 16.4502 16.7499 16.4502 16.8058C16.4502 16.8143 16.4502 16.8228 16.4516 16.8301C16.4544 16.8763 16.4684 16.9164 16.4916 16.9492C16.5196 16.9869 16.554 17.0051 16.594 17.0051H17.5936C17.6336 17.0051 17.6673 16.9869 17.6947 16.9492C17.7227 16.9103 17.7374 16.8629 17.7374 16.8058C17.7374 16.7511 17.7262 16.7049 17.7038 16.6696ZM17.3748 12.914C17.3579 12.8289 17.3292 12.7524 17.2892 12.6855C17.2204 12.5664 17.137 12.5068 17.0388 12.5068C16.9412 12.5068 16.8571 12.5664 16.7876 12.6855C16.761 12.7305 16.7399 12.7791 16.7238 12.8314C16.6978 12.9164 16.6845 13.01 16.6845 13.1133C16.6845 13.2811 16.7189 13.4245 16.7876 13.5436C16.8571 13.6603 16.9412 13.7198 17.0388 13.7198C17.137 13.7198 17.2204 13.6603 17.2892 13.5436C17.3586 13.4245 17.3937 13.2811 17.3937 13.1133C17.3937 13.0428 17.3874 12.976 17.3748 12.914Z" fill="#ED5221"/>
<path d="M19.9845 16.1719C19.9803 16.1598 19.9747 16.1501 19.9677 16.1403C19.941 16.1039 19.9095 16.0942 19.8737 16.1112C19.8379 16.127 19.8064 16.1646 19.7776 16.2254C19.7762 16.2291 19.7748 16.2315 19.7734 16.2351H19.7727C19.7124 16.3628 19.6373 16.4624 19.5482 16.5329C19.4577 16.6034 19.3602 16.6387 19.2557 16.6387C19.1392 16.6387 19.0361 16.6046 18.9456 16.5366C18.9162 16.5135 18.8888 16.4879 18.8635 16.4588C18.8116 16.4017 18.7681 16.3336 18.7317 16.2546C18.679 16.1379 18.6391 16.0091 18.6117 15.8681C18.5843 15.7283 18.5696 15.5788 18.5675 15.4208H19.9951C19.9866 14.9395 19.8975 14.5639 19.7278 14.2929C19.558 14.0219 19.3293 13.8857 19.0417 13.8857C18.6994 13.8857 18.4223 14.0365 18.2119 14.3391C18.0007 14.6417 17.8948 15.0282 17.8948 15.4998C17.8948 15.9361 17.9853 16.3008 18.1656 16.5937C18.1817 16.6204 18.1992 16.646 18.2168 16.6715C18.4314 16.9741 18.7127 17.1248 19.0621 17.1248C19.2585 17.1248 19.436 17.0628 19.5945 16.9377C19.753 16.8125 19.8786 16.635 19.9712 16.4041C19.9901 16.3555 20 16.3069 20 16.2582C20 16.2254 19.9951 16.1962 19.9845 16.1719ZM18.7422 14.4594C18.8243 14.2978 18.9253 14.2163 19.0452 14.2163C19.1498 14.2163 19.236 14.2978 19.3034 14.4594C19.3707 14.6199 19.4072 14.8301 19.4128 15.0927H18.5829C18.6068 14.8301 18.6601 14.6199 18.7422 14.4594Z" fill="#ED5221"/>
<path d="M7.89708 13.6584C7.89708 14.1312 7.73995 14.367 7.42498 14.367H6.93042V12.8672H7.42498C7.56036 12.8672 7.6698 12.928 7.75047 13.0483C7.75748 13.058 7.7638 13.0677 7.77011 13.0787C7.85499 13.2197 7.89708 13.4129 7.89708 13.6584Z" fill="white"/>
</svg>
